<svg xmlns="http://www.w3.org/2000/svg" viewBox="0 0 800 360"><defs><linearGradient id="b" x1="0" x2="1" y2="1"><stop stop-color="#0a3e62"/><stop offset="1" stop-color="#0ca6b8"/></linearGradient></defs><rect width="800" height="360" fill="url(#b)"/><circle cx="676" cy="72" r="100" fill="#fff" opacity=".08"/><g transform="translate(105 72)"><circle cx="120" cy="110" r="82" fill="#e8f8fb"/><circle cx="120" cy="110" r="52" fill="none" stroke="#0e8fb2" stroke-width="22" stroke-dasharray="24 12"/><circle cx="120" cy="110" r="18" fill="#073751"/><rect x="190" y="70" width="85" height="155" rx="24" fill="#f5fbfd" transform="rotate(18 190 70)"/><rect x="215" y="95" width="35" height="105" rx="10" fill="#0d8db0"/></g><g transform="translate(430 150)"><path d="M30 82h270l-35-72H96L60 82" fill="#cdeef7"/><rect y="72" width="330" height="100" rx="32" fill="#f9fdff"/><circle cx="72" cy="175" r="31" fill="#052e4f"/><circle cx="258" cy="175" r="31" fill="#052e4f"/><circle cx="72" cy="175" r="12" fill="#fff"/><circle cx="258" cy="175" r="12" fill="#fff"/></g><g transform="translate(555 56)"><circle cx="54" cy="54" r="48" fill="#25d366"/><path d="M28 54h52M54 28v52" stroke="#fff" stroke-width="12" stroke-linecap="round"/></g></svg>